<svg class="svg-icon" style="width: 1em; height: 1em;vertical-align: middle;fill: currentColor;overflow: hidden;" viewBox="0 0 1024 1024" version="1.1"
    xmlns="http://www.w3.org/2000/svg">
    <path d="M746.496 851.456H277.504a102.4 102.4 0 0 1-102.4-102.4V279.04a102.4 102.4 0 0 1 102.4-102.4h468.992a102.4 102.4 0 0 1 102.4 102.4v468.992a102.4 102.4 0 0 1-102.4 103.424zM277.504 226.304a51.2 51.2 0 0 0-51.2 51.2v468.992a51.2 51.2 0 0 0 51.2 51.2h468.992a51.2 51.2 0 0 0 51.2-51.2V279.04a51.2 51.2 0 0 0-51.2-51.2z" fill="#0F0F0F" />
</svg>